<mxfile host="app.diagrams.net" modified="2024-05-28T16:20:01.367Z" agent="Mozilla/5.0 (Windows NT 10.0; Win64; x64) AppleWebKit/537.36 (KHTML, like Gecko) Chrome/125.0.0.0 Safari/537.36" version="24.4.9" etag="tD97sM2glJigynOKVRzd" type="github">
  <diagram name="Strona-1" id="1-wHiBkHyMHVspOvyUwQ">
    <mxGraphModel>
      <root>
        <mxCell id="0" />
        <mxCell id="1" parent="0" />
      </root>
    </mxGraphModel>
  </diagram>
</mxfile>
